<mxfile host="app.diagrams.net" agent="Mozilla/5.0 (Windows NT 10.0; Win64; x64) AppleWebKit/537.36 (KHTML, like Gecko) Chrome/132.0.0.0 Safari/537.36" version="26.0.11">
  <diagram name="Page-1" id="0BFBcrunttoe2T1CGT-2">
    <mxGraphModel dx="1512" dy="1521" grid="1" gridSize="10" guides="1" tooltips="1" connect="1" arrows="1" fold="1" page="1" pageScale="1" pageWidth="850" pageHeight="1100" math="0" shadow="0">
      <root>
        <mxCell id="0" />
        <mxCell id="1" parent="0" />
        <mxCell id="wsVuDGbtytkXM1EMai7X-3" value="User" style="whiteSpace=wrap;html=1;align=center;" vertex="1" parent="1">
          <mxGeometry x="430" y="260" width="100" height="40" as="geometry" />
        </mxCell>
        <mxCell id="wsVuDGbtytkXM1EMai7X-4" value="Following" style="shape=ext;margin=3;double=1;whiteSpace=wrap;html=1;align=center;" vertex="1" parent="1">
          <mxGeometry x="850" y="300" width="100" height="40" as="geometry" />
        </mxCell>
        <mxCell id="wsVuDGbtytkXM1EMai7X-5" value="Follower" style="shape=ext;margin=3;double=1;whiteSpace=wrap;html=1;align=center;" vertex="1" parent="1">
          <mxGeometry x="850" y="160" width="100" height="40" as="geometry" />
        </mxCell>
        <mxCell id="wsVuDGbtytkXM1EMai7X-8" value="User Interaction" style="whiteSpace=wrap;html=1;align=center;" vertex="1" parent="1">
          <mxGeometry x="825" y="-122.5" width="100" height="40" as="geometry" />
        </mxCell>
        <mxCell id="wsVuDGbtytkXM1EMai7X-9" value="Post" style="whiteSpace=wrap;html=1;align=center;" vertex="1" parent="1">
          <mxGeometry x="90" y="-70" width="100" height="40" as="geometry" />
        </mxCell>
        <mxCell id="wsVuDGbtytkXM1EMai7X-10" value="Story" style="whiteSpace=wrap;html=1;align=center;" vertex="1" parent="1">
          <mxGeometry x="-30" y="250" width="100" height="40" as="geometry" />
        </mxCell>
        <mxCell id="wsVuDGbtytkXM1EMai7X-11" value="Direct Message" style="whiteSpace=wrap;html=1;align=center;" vertex="1" parent="1">
          <mxGeometry x="450" y="530" width="100" height="40" as="geometry" />
        </mxCell>
        <mxCell id="wsVuDGbtytkXM1EMai7X-13" value="Tagged Users (FK&#39;s)" style="ellipse;shape=doubleEllipse;margin=3;whiteSpace=wrap;html=1;align=center;" vertex="1" parent="1">
          <mxGeometry x="-40" y="-72.5" width="110" height="50" as="geometry" />
        </mxCell>
        <mxCell id="wsVuDGbtytkXM1EMai7X-15" value="Interaction ID&#39;s (FK)" style="ellipse;shape=doubleEllipse;margin=3;whiteSpace=wrap;html=1;align=center;" vertex="1" parent="1">
          <mxGeometry x="-20" y="-5" width="100" height="40" as="geometry" />
        </mxCell>
        <mxCell id="wsVuDGbtytkXM1EMai7X-16" value="Timestamp" style="ellipse;whiteSpace=wrap;html=1;align=center;" vertex="1" parent="1">
          <mxGeometry x="-30" y="-130" width="100" height="40" as="geometry" />
        </mxCell>
        <mxCell id="wsVuDGbtytkXM1EMai7X-17" value="Total Likes" style="ellipse;whiteSpace=wrap;html=1;align=center;" vertex="1" parent="1">
          <mxGeometry x="80" y="-140" width="100" height="50" as="geometry" />
        </mxCell>
        <mxCell id="wsVuDGbtytkXM1EMai7X-18" value="PostID" style="ellipse;whiteSpace=wrap;html=1;align=center;fontStyle=4;" vertex="1" parent="1">
          <mxGeometry x="190" y="-120" width="100" height="40" as="geometry" />
        </mxCell>
        <mxCell id="wsVuDGbtytkXM1EMai7X-19" value="Caption" style="ellipse;whiteSpace=wrap;html=1;align=center;" vertex="1" parent="1">
          <mxGeometry x="220" y="-40" width="100" height="40" as="geometry" />
        </mxCell>
        <mxCell id="wsVuDGbtytkXM1EMai7X-20" value="Image/s" style="ellipse;whiteSpace=wrap;html=1;align=center;" vertex="1" parent="1">
          <mxGeometry x="90" y="-10" width="100" height="50" as="geometry" />
        </mxCell>
        <mxCell id="wsVuDGbtytkXM1EMai7X-21" value="PostID (FK)" style="ellipse;whiteSpace=wrap;html=1;align=center;" vertex="1" parent="1">
          <mxGeometry x="805" y="-200" width="100" height="40" as="geometry" />
        </mxCell>
        <mxCell id="wsVuDGbtytkXM1EMai7X-22" value="UserID(FK)" style="ellipse;whiteSpace=wrap;html=1;align=center;" vertex="1" parent="1">
          <mxGeometry x="905" y="-175" width="100" height="40" as="geometry" />
        </mxCell>
        <mxCell id="wsVuDGbtytkXM1EMai7X-24" value="IsLiked" style="ellipse;whiteSpace=wrap;html=1;align=center;" vertex="1" parent="1">
          <mxGeometry x="955" y="-122.5" width="100" height="40" as="geometry" />
        </mxCell>
        <mxCell id="wsVuDGbtytkXM1EMai7X-25" value="IsSaved" style="ellipse;whiteSpace=wrap;html=1;align=center;" vertex="1" parent="1">
          <mxGeometry x="915" y="-72.5" width="100" height="40" as="geometry" />
        </mxCell>
        <mxCell id="wsVuDGbtytkXM1EMai7X-26" value="InteractionID" style="ellipse;whiteSpace=wrap;html=1;align=center;fontStyle=4;" vertex="1" parent="1">
          <mxGeometry x="805" y="-57.5" width="100" height="40" as="geometry" />
        </mxCell>
        <mxCell id="wsVuDGbtytkXM1EMai7X-29" value="InteractionID (FK)" style="ellipse;whiteSpace=wrap;html=1;align=center;" vertex="1" parent="1">
          <mxGeometry x="560" y="-250" width="110" height="40" as="geometry" />
        </mxCell>
        <mxCell id="wsVuDGbtytkXM1EMai7X-30" value="Comment" style="ellipse;whiteSpace=wrap;html=1;align=center;" vertex="1" parent="1">
          <mxGeometry x="335" y="-250" width="100" height="40" as="geometry" />
        </mxCell>
        <mxCell id="wsVuDGbtytkXM1EMai7X-34" value="&lt;span style=&quot;border-bottom: 1px dotted&quot;&gt;TimeStamp&lt;/span&gt;" style="ellipse;whiteSpace=wrap;html=1;align=center;" vertex="1" parent="1">
          <mxGeometry x="450" y="-280" width="100" height="40" as="geometry" />
        </mxCell>
        <mxCell id="wsVuDGbtytkXM1EMai7X-36" value="Comment" style="shape=ext;margin=3;double=1;whiteSpace=wrap;html=1;align=center;" vertex="1" parent="1">
          <mxGeometry x="450" y="-212.5" width="100" height="40" as="geometry" />
        </mxCell>
        <mxCell id="wsVuDGbtytkXM1EMai7X-37" value="NumFollowers" style="ellipse;whiteSpace=wrap;html=1;align=center;" vertex="1" parent="1">
          <mxGeometry x="310" y="190" width="100" height="40" as="geometry" />
        </mxCell>
        <mxCell id="wsVuDGbtytkXM1EMai7X-38" value="Biography" style="ellipse;whiteSpace=wrap;html=1;align=center;" vertex="1" parent="1">
          <mxGeometry x="530" y="180" width="100" height="40" as="geometry" />
        </mxCell>
        <mxCell id="wsVuDGbtytkXM1EMai7X-39" value="Email" style="ellipse;whiteSpace=wrap;html=1;align=center;" vertex="1" parent="1">
          <mxGeometry x="290" y="260" width="100" height="40" as="geometry" />
        </mxCell>
        <mxCell id="wsVuDGbtytkXM1EMai7X-40" value="Username" style="ellipse;whiteSpace=wrap;html=1;align=center;" vertex="1" parent="1">
          <mxGeometry x="310" y="330" width="100" height="40" as="geometry" />
        </mxCell>
        <mxCell id="wsVuDGbtytkXM1EMai7X-41" value="Password" style="ellipse;whiteSpace=wrap;html=1;align=center;" vertex="1" parent="1">
          <mxGeometry x="525" y="320" width="100" height="40" as="geometry" />
        </mxCell>
        <mxCell id="wsVuDGbtytkXM1EMai7X-42" value="NumFollowing" style="ellipse;whiteSpace=wrap;html=1;align=center;" vertex="1" parent="1">
          <mxGeometry x="425" y="160" width="100" height="40" as="geometry" />
        </mxCell>
        <mxCell id="wsVuDGbtytkXM1EMai7X-43" value="Profile_Pic" style="ellipse;whiteSpace=wrap;html=1;align=center;" vertex="1" parent="1">
          <mxGeometry x="410" y="350" width="100" height="40" as="geometry" />
        </mxCell>
        <mxCell id="wsVuDGbtytkXM1EMai7X-44" value="UserID" style="ellipse;whiteSpace=wrap;html=1;align=center;fontStyle=4;" vertex="1" parent="1">
          <mxGeometry x="560" y="260" width="100" height="40" as="geometry" />
        </mxCell>
        <mxCell id="wsVuDGbtytkXM1EMai7X-45" value="&lt;span style=&quot;border-bottom: 1px dotted&quot;&gt;FollwerID (FK)&lt;/span&gt;" style="ellipse;whiteSpace=wrap;html=1;align=center;" vertex="1" parent="1">
          <mxGeometry x="970" y="130" width="100" height="40" as="geometry" />
        </mxCell>
        <mxCell id="wsVuDGbtytkXM1EMai7X-46" value="&lt;span style=&quot;border-bottom: 1px dotted&quot;&gt;UserID (FK)&lt;/span&gt;" style="ellipse;whiteSpace=wrap;html=1;align=center;" vertex="1" parent="1">
          <mxGeometry x="970" y="190" width="100" height="40" as="geometry" />
        </mxCell>
        <mxCell id="wsVuDGbtytkXM1EMai7X-47" value="&lt;span style=&quot;border-bottom: 1px dotted&quot;&gt;UserID (FK)&lt;/span&gt;" style="ellipse;whiteSpace=wrap;html=1;align=center;" vertex="1" parent="1">
          <mxGeometry x="970" y="270" width="100" height="40" as="geometry" />
        </mxCell>
        <mxCell id="wsVuDGbtytkXM1EMai7X-48" value="&lt;span style=&quot;border-bottom: 1px dotted&quot;&gt;FollwingID (FK)&lt;/span&gt;" style="ellipse;whiteSpace=wrap;html=1;align=center;" vertex="1" parent="1">
          <mxGeometry x="970" y="330" width="100" height="40" as="geometry" />
        </mxCell>
        <mxCell id="wsVuDGbtytkXM1EMai7X-49" value="DM ID" style="ellipse;whiteSpace=wrap;html=1;align=center;fontStyle=4;" vertex="1" parent="1">
          <mxGeometry x="455" y="590" width="100" height="40" as="geometry" />
        </mxCell>
        <mxCell id="wsVuDGbtytkXM1EMai7X-50" value="TimeStamp" style="ellipse;whiteSpace=wrap;html=1;align=center;" vertex="1" parent="1">
          <mxGeometry x="335" y="590" width="100" height="40" as="geometry" />
        </mxCell>
        <mxCell id="wsVuDGbtytkXM1EMai7X-51" value="Sender(FK)" style="ellipse;whiteSpace=wrap;html=1;align=center;" vertex="1" parent="1">
          <mxGeometry x="310" y="530" width="100" height="40" as="geometry" />
        </mxCell>
        <mxCell id="wsVuDGbtytkXM1EMai7X-52" value="Receiver(FK)" style="ellipse;whiteSpace=wrap;html=1;align=center;" vertex="1" parent="1">
          <mxGeometry x="385" y="470" width="100" height="40" as="geometry" />
        </mxCell>
        <mxCell id="wsVuDGbtytkXM1EMai7X-53" value="Message" style="ellipse;whiteSpace=wrap;html=1;align=center;" vertex="1" parent="1">
          <mxGeometry x="565" y="570" width="100" height="40" as="geometry" />
        </mxCell>
        <mxCell id="wsVuDGbtytkXM1EMai7X-54" value="ViewedBy (FK&#39;s)" style="ellipse;shape=doubleEllipse;margin=3;whiteSpace=wrap;html=1;align=center;" vertex="1" parent="1">
          <mxGeometry x="-170" y="220" width="120" height="40" as="geometry" />
        </mxCell>
        <mxCell id="wsVuDGbtytkXM1EMai7X-55" value="&lt;u&gt;StoryID&lt;/u&gt;" style="ellipse;whiteSpace=wrap;html=1;align=center;" vertex="1" parent="1">
          <mxGeometry x="-150" y="270" width="100" height="40" as="geometry" />
        </mxCell>
        <mxCell id="wsVuDGbtytkXM1EMai7X-56" value="TimeStamp" style="ellipse;whiteSpace=wrap;html=1;align=center;" vertex="1" parent="1">
          <mxGeometry x="-50" y="320" width="100" height="40" as="geometry" />
        </mxCell>
        <mxCell id="wsVuDGbtytkXM1EMai7X-58" value="Is Following" style="shape=rhombus;double=1;perimeter=rhombusPerimeter;whiteSpace=wrap;html=1;align=center;" vertex="1" parent="1">
          <mxGeometry x="660" y="300" width="120" height="60" as="geometry" />
        </mxCell>
        <mxCell id="wsVuDGbtytkXM1EMai7X-59" value="Follows" style="shape=rhombus;double=1;perimeter=rhombusPerimeter;whiteSpace=wrap;html=1;align=center;" vertex="1" parent="1">
          <mxGeometry x="660" y="170" width="120" height="60" as="geometry" />
        </mxCell>
        <mxCell id="wsVuDGbtytkXM1EMai7X-60" value="" style="endArrow=none;html=1;rounded=0;exitX=1;exitY=1;exitDx=0;exitDy=0;entryX=0;entryY=0.5;entryDx=0;entryDy=0;strokeColor=#02742A;" edge="1" parent="1" source="wsVuDGbtytkXM1EMai7X-3" target="wsVuDGbtytkXM1EMai7X-58">
          <mxGeometry relative="1" as="geometry">
            <mxPoint x="630" y="350" as="sourcePoint" />
            <mxPoint x="790" y="350" as="targetPoint" />
          </mxGeometry>
        </mxCell>
        <mxCell id="wsVuDGbtytkXM1EMai7X-105" value="N" style="edgeLabel;html=1;align=center;verticalAlign=middle;resizable=0;points=[];" vertex="1" connectable="0" parent="wsVuDGbtytkXM1EMai7X-60">
          <mxGeometry x="0.6374" y="4" relative="1" as="geometry">
            <mxPoint x="20" y="-1" as="offset" />
          </mxGeometry>
        </mxCell>
        <mxCell id="wsVuDGbtytkXM1EMai7X-61" value="" style="endArrow=none;html=1;rounded=0;exitX=1;exitY=0.5;exitDx=0;exitDy=0;entryX=0;entryY=0.5;entryDx=0;entryDy=0;shape=link;strokeColor=#02742A;" edge="1" parent="1" source="wsVuDGbtytkXM1EMai7X-58" target="wsVuDGbtytkXM1EMai7X-4">
          <mxGeometry relative="1" as="geometry">
            <mxPoint x="630" y="350" as="sourcePoint" />
            <mxPoint x="790" y="350" as="targetPoint" />
          </mxGeometry>
        </mxCell>
        <mxCell id="wsVuDGbtytkXM1EMai7X-104" value="N" style="edgeLabel;html=1;align=center;verticalAlign=middle;resizable=0;points=[];" vertex="1" connectable="0" parent="wsVuDGbtytkXM1EMai7X-61">
          <mxGeometry x="-0.437" y="1" relative="1" as="geometry">
            <mxPoint x="-20" y="-6" as="offset" />
          </mxGeometry>
        </mxCell>
        <mxCell id="wsVuDGbtytkXM1EMai7X-63" value="" style="endArrow=none;html=1;rounded=0;exitX=1;exitY=0;exitDx=0;exitDy=0;entryX=0;entryY=0.5;entryDx=0;entryDy=0;strokeColor=#02742A;" edge="1" parent="1" source="wsVuDGbtytkXM1EMai7X-3" target="wsVuDGbtytkXM1EMai7X-59">
          <mxGeometry relative="1" as="geometry">
            <mxPoint x="630" y="350" as="sourcePoint" />
            <mxPoint x="790" y="350" as="targetPoint" />
          </mxGeometry>
        </mxCell>
        <mxCell id="wsVuDGbtytkXM1EMai7X-103" value="N" style="edgeLabel;html=1;align=center;verticalAlign=middle;resizable=0;points=[];" vertex="1" connectable="0" parent="wsVuDGbtytkXM1EMai7X-63">
          <mxGeometry x="0.7414" relative="1" as="geometry">
            <mxPoint x="17" y="2" as="offset" />
          </mxGeometry>
        </mxCell>
        <mxCell id="wsVuDGbtytkXM1EMai7X-64" value="" style="endArrow=none;html=1;rounded=0;exitX=1;exitY=0.5;exitDx=0;exitDy=0;entryX=0;entryY=0.5;entryDx=0;entryDy=0;shape=link;strokeColor=#02742A;" edge="1" parent="1" source="wsVuDGbtytkXM1EMai7X-59" target="wsVuDGbtytkXM1EMai7X-5">
          <mxGeometry relative="1" as="geometry">
            <mxPoint x="630" y="350" as="sourcePoint" />
            <mxPoint x="790" y="350" as="targetPoint" />
          </mxGeometry>
        </mxCell>
        <mxCell id="wsVuDGbtytkXM1EMai7X-101" value="N" style="edgeLabel;html=1;align=center;verticalAlign=middle;resizable=0;points=[];" vertex="1" connectable="0" parent="wsVuDGbtytkXM1EMai7X-64">
          <mxGeometry x="-0.6796" y="-4" relative="1" as="geometry">
            <mxPoint x="-12" y="-11" as="offset" />
          </mxGeometry>
        </mxCell>
        <mxCell id="wsVuDGbtytkXM1EMai7X-66" value="" style="endArrow=none;html=1;rounded=0;exitX=0.5;exitY=1;exitDx=0;exitDy=0;entryX=0.5;entryY=0;entryDx=0;entryDy=0;strokeColor=#02742A;" edge="1" parent="1" source="wsVuDGbtytkXM1EMai7X-3" target="wsVuDGbtytkXM1EMai7X-68">
          <mxGeometry relative="1" as="geometry">
            <mxPoint x="570" y="430" as="sourcePoint" />
            <mxPoint x="520" y="390" as="targetPoint" />
          </mxGeometry>
        </mxCell>
        <mxCell id="wsVuDGbtytkXM1EMai7X-72" value="&lt;font style=&quot;font-size: 14px;&quot;&gt;1&lt;/font&gt;" style="edgeLabel;html=1;align=center;verticalAlign=middle;resizable=0;points=[];" vertex="1" connectable="0" parent="wsVuDGbtytkXM1EMai7X-66">
          <mxGeometry x="0.6733" y="4" relative="1" as="geometry">
            <mxPoint x="10" y="8" as="offset" />
          </mxGeometry>
        </mxCell>
        <mxCell id="wsVuDGbtytkXM1EMai7X-68" value="Composes" style="shape=rhombus;perimeter=rhombusPerimeter;whiteSpace=wrap;html=1;align=center;" vertex="1" parent="1">
          <mxGeometry x="485" y="400" width="100" height="50" as="geometry" />
        </mxCell>
        <mxCell id="wsVuDGbtytkXM1EMai7X-69" value="" style="endArrow=none;html=1;rounded=0;exitX=0.5;exitY=1;exitDx=0;exitDy=0;entryX=0.5;entryY=0;entryDx=0;entryDy=0;shape=link;strokeColor=#02742A;" edge="1" parent="1" source="wsVuDGbtytkXM1EMai7X-68" target="wsVuDGbtytkXM1EMai7X-11">
          <mxGeometry relative="1" as="geometry">
            <mxPoint x="570" y="430" as="sourcePoint" />
            <mxPoint x="730" y="430" as="targetPoint" />
          </mxGeometry>
        </mxCell>
        <mxCell id="wsVuDGbtytkXM1EMai7X-71" value="&lt;font style=&quot;font-size: 14px;&quot;&gt;1&lt;/font&gt;" style="edgeLabel;html=1;align=center;verticalAlign=middle;resizable=0;points=[];" vertex="1" connectable="0" parent="wsVuDGbtytkXM1EMai7X-69">
          <mxGeometry x="-0.6624" y="-2" relative="1" as="geometry">
            <mxPoint x="23" y="-12" as="offset" />
          </mxGeometry>
        </mxCell>
        <mxCell id="wsVuDGbtytkXM1EMai7X-73" value="Composes" style="shape=rhombus;perimeter=rhombusPerimeter;whiteSpace=wrap;html=1;align=center;" vertex="1" parent="1">
          <mxGeometry x="180" y="190" width="80" height="60" as="geometry" />
        </mxCell>
        <mxCell id="wsVuDGbtytkXM1EMai7X-74" value="Views" style="shape=rhombus;perimeter=rhombusPerimeter;whiteSpace=wrap;html=1;align=center;" vertex="1" parent="1">
          <mxGeometry x="180" y="300" width="80" height="60" as="geometry" />
        </mxCell>
        <mxCell id="wsVuDGbtytkXM1EMai7X-75" value="" style="endArrow=none;html=1;rounded=0;entryX=0;entryY=0;entryDx=0;entryDy=0;exitX=1;exitY=0.5;exitDx=0;exitDy=0;strokeColor=#02742A;" edge="1" parent="1" source="wsVuDGbtytkXM1EMai7X-73" target="wsVuDGbtytkXM1EMai7X-3">
          <mxGeometry relative="1" as="geometry">
            <mxPoint x="140" y="350" as="sourcePoint" />
            <mxPoint x="300" y="350" as="targetPoint" />
          </mxGeometry>
        </mxCell>
        <mxCell id="wsVuDGbtytkXM1EMai7X-107" value="1" style="edgeLabel;html=1;align=center;verticalAlign=middle;resizable=0;points=[];" vertex="1" connectable="0" parent="wsVuDGbtytkXM1EMai7X-75">
          <mxGeometry x="-0.8124" relative="1" as="geometry">
            <mxPoint x="-16" y="-14" as="offset" />
          </mxGeometry>
        </mxCell>
        <mxCell id="wsVuDGbtytkXM1EMai7X-76" value="" style="endArrow=none;html=1;rounded=0;exitX=0;exitY=0.5;exitDx=0;exitDy=0;entryX=1;entryY=0;entryDx=0;entryDy=0;shape=link;strokeColor=#02742A;" edge="1" parent="1" source="wsVuDGbtytkXM1EMai7X-73" target="wsVuDGbtytkXM1EMai7X-10">
          <mxGeometry relative="1" as="geometry">
            <mxPoint x="140" y="350" as="sourcePoint" />
            <mxPoint x="300" y="350" as="targetPoint" />
          </mxGeometry>
        </mxCell>
        <mxCell id="wsVuDGbtytkXM1EMai7X-106" value="N" style="edgeLabel;html=1;align=center;verticalAlign=middle;resizable=0;points=[];" vertex="1" connectable="0" parent="wsVuDGbtytkXM1EMai7X-76">
          <mxGeometry x="-0.0921" y="1" relative="1" as="geometry">
            <mxPoint x="50" y="-25" as="offset" />
          </mxGeometry>
        </mxCell>
        <mxCell id="wsVuDGbtytkXM1EMai7X-77" value="" style="endArrow=none;html=1;rounded=0;exitX=1;exitY=1;exitDx=0;exitDy=0;entryX=0;entryY=0.5;entryDx=0;entryDy=0;shape=link;strokeColor=light-dark(#02742A,#EDEDED);" edge="1" parent="1" source="wsVuDGbtytkXM1EMai7X-10" target="wsVuDGbtytkXM1EMai7X-74">
          <mxGeometry relative="1" as="geometry">
            <mxPoint x="140" y="350" as="sourcePoint" />
            <mxPoint x="300" y="350" as="targetPoint" />
          </mxGeometry>
        </mxCell>
        <mxCell id="wsVuDGbtytkXM1EMai7X-109" value="N" style="edgeLabel;html=1;align=center;verticalAlign=middle;resizable=0;points=[];" vertex="1" connectable="0" parent="wsVuDGbtytkXM1EMai7X-77">
          <mxGeometry x="0.5676" y="2" relative="1" as="geometry">
            <mxPoint x="23" y="1" as="offset" />
          </mxGeometry>
        </mxCell>
        <mxCell id="wsVuDGbtytkXM1EMai7X-78" value="" style="endArrow=none;html=1;rounded=0;entryX=0;entryY=1;entryDx=0;entryDy=0;shape=link;strokeColor=#02742A;" edge="1" parent="1" target="wsVuDGbtytkXM1EMai7X-3">
          <mxGeometry relative="1" as="geometry">
            <mxPoint x="260" y="330" as="sourcePoint" />
            <mxPoint x="300" y="350" as="targetPoint" />
          </mxGeometry>
        </mxCell>
        <mxCell id="wsVuDGbtytkXM1EMai7X-108" value="N" style="edgeLabel;html=1;align=center;verticalAlign=middle;resizable=0;points=[];" vertex="1" connectable="0" parent="wsVuDGbtytkXM1EMai7X-78">
          <mxGeometry x="-0.7989" y="2" relative="1" as="geometry">
            <mxPoint x="-17" y="-5" as="offset" />
          </mxGeometry>
        </mxCell>
        <mxCell id="wsVuDGbtytkXM1EMai7X-79" value="Creates" style="shape=rhombus;perimeter=rhombusPerimeter;whiteSpace=wrap;html=1;align=center;" vertex="1" parent="1">
          <mxGeometry x="260" y="80" width="120" height="60" as="geometry" />
        </mxCell>
        <mxCell id="wsVuDGbtytkXM1EMai7X-80" value="" style="endArrow=none;html=1;rounded=0;exitX=1;exitY=0.5;exitDx=0;exitDy=0;entryX=0.25;entryY=0;entryDx=0;entryDy=0;strokeColor=#02742A;" edge="1" parent="1" source="wsVuDGbtytkXM1EMai7X-79" target="wsVuDGbtytkXM1EMai7X-3">
          <mxGeometry relative="1" as="geometry">
            <mxPoint x="310" y="110" as="sourcePoint" />
            <mxPoint x="470" y="110" as="targetPoint" />
          </mxGeometry>
        </mxCell>
        <mxCell id="wsVuDGbtytkXM1EMai7X-98" value="1" style="edgeLabel;html=1;align=center;verticalAlign=middle;resizable=0;points=[];" vertex="1" connectable="0" parent="wsVuDGbtytkXM1EMai7X-80">
          <mxGeometry x="-0.7495" y="2" relative="1" as="geometry">
            <mxPoint x="-11" as="offset" />
          </mxGeometry>
        </mxCell>
        <mxCell id="wsVuDGbtytkXM1EMai7X-81" value="" style="endArrow=none;html=1;rounded=0;exitX=0;exitY=0.5;exitDx=0;exitDy=0;entryX=1;entryY=1;entryDx=0;entryDy=0;strokeColor=#02742A;shape=link;" edge="1" parent="1" source="wsVuDGbtytkXM1EMai7X-79" target="wsVuDGbtytkXM1EMai7X-9">
          <mxGeometry relative="1" as="geometry">
            <mxPoint x="250" y="100" as="sourcePoint" />
            <mxPoint x="410" y="100" as="targetPoint" />
          </mxGeometry>
        </mxCell>
        <mxCell id="wsVuDGbtytkXM1EMai7X-97" value="N" style="edgeLabel;html=1;align=center;verticalAlign=middle;resizable=0;points=[];" vertex="1" connectable="0" parent="wsVuDGbtytkXM1EMai7X-81">
          <mxGeometry x="-0.7333" y="-1" relative="1" as="geometry">
            <mxPoint x="8" as="offset" />
          </mxGeometry>
        </mxCell>
        <mxCell id="wsVuDGbtytkXM1EMai7X-82" value="Builds" style="shape=rhombus;perimeter=rhombusPerimeter;whiteSpace=wrap;html=1;align=center;" vertex="1" parent="1">
          <mxGeometry x="572.5" width="85" height="60" as="geometry" />
        </mxCell>
        <mxCell id="wsVuDGbtytkXM1EMai7X-83" value="" style="endArrow=none;html=1;rounded=0;exitX=0.75;exitY=0;exitDx=0;exitDy=0;entryX=0;entryY=0.5;entryDx=0;entryDy=0;strokeColor=#02742A;" edge="1" parent="1" source="wsVuDGbtytkXM1EMai7X-3" target="wsVuDGbtytkXM1EMai7X-82">
          <mxGeometry relative="1" as="geometry">
            <mxPoint x="490" y="140" as="sourcePoint" />
            <mxPoint x="650" y="140" as="targetPoint" />
          </mxGeometry>
        </mxCell>
        <mxCell id="wsVuDGbtytkXM1EMai7X-100" value="1" style="edgeLabel;html=1;align=center;verticalAlign=middle;resizable=0;points=[];" vertex="1" connectable="0" parent="wsVuDGbtytkXM1EMai7X-83">
          <mxGeometry x="0.8572" y="-4" relative="1" as="geometry">
            <mxPoint x="3" as="offset" />
          </mxGeometry>
        </mxCell>
        <mxCell id="wsVuDGbtytkXM1EMai7X-84" value="" style="endArrow=none;html=1;rounded=0;exitX=1;exitY=0.5;exitDx=0;exitDy=0;entryX=0;entryY=1;entryDx=0;entryDy=0;shape=link;strokeColor=#02742A;" edge="1" parent="1" source="wsVuDGbtytkXM1EMai7X-82" target="wsVuDGbtytkXM1EMai7X-8">
          <mxGeometry relative="1" as="geometry">
            <mxPoint x="600" as="sourcePoint" />
            <mxPoint x="760" as="targetPoint" />
          </mxGeometry>
        </mxCell>
        <mxCell id="wsVuDGbtytkXM1EMai7X-99" value="N" style="edgeLabel;html=1;align=center;verticalAlign=middle;resizable=0;points=[];" vertex="1" connectable="0" parent="wsVuDGbtytkXM1EMai7X-84">
          <mxGeometry x="-0.5857" y="-1" relative="1" as="geometry">
            <mxPoint x="-33" y="2" as="offset" />
          </mxGeometry>
        </mxCell>
        <mxCell id="wsVuDGbtytkXM1EMai7X-85" value="Contains" style="shape=rhombus;perimeter=rhombusPerimeter;whiteSpace=wrap;html=1;align=center;" vertex="1" parent="1">
          <mxGeometry x="660" y="-200" width="70" height="60" as="geometry" />
        </mxCell>
        <mxCell id="wsVuDGbtytkXM1EMai7X-86" value="" style="endArrow=none;html=1;rounded=0;exitX=1;exitY=0.5;exitDx=0;exitDy=0;entryX=0;entryY=0.5;entryDx=0;entryDy=0;shape=link;strokeColor=#02742A;" edge="1" parent="1" source="wsVuDGbtytkXM1EMai7X-36" target="wsVuDGbtytkXM1EMai7X-85">
          <mxGeometry relative="1" as="geometry">
            <mxPoint x="600" y="-80" as="sourcePoint" />
            <mxPoint x="760" y="-80" as="targetPoint" />
          </mxGeometry>
        </mxCell>
        <mxCell id="wsVuDGbtytkXM1EMai7X-92" value="1" style="edgeLabel;html=1;align=center;verticalAlign=middle;resizable=0;points=[];" vertex="1" connectable="0" parent="wsVuDGbtytkXM1EMai7X-86">
          <mxGeometry x="0.5124" y="-2" relative="1" as="geometry">
            <mxPoint x="25" y="14" as="offset" />
          </mxGeometry>
        </mxCell>
        <mxCell id="wsVuDGbtytkXM1EMai7X-87" value="" style="endArrow=none;html=1;rounded=0;exitX=1;exitY=0.5;exitDx=0;exitDy=0;entryX=0;entryY=0;entryDx=0;entryDy=0;shape=link;strokeColor=#02742A;" edge="1" parent="1" source="wsVuDGbtytkXM1EMai7X-85" target="wsVuDGbtytkXM1EMai7X-8">
          <mxGeometry relative="1" as="geometry">
            <mxPoint x="600" y="-80" as="sourcePoint" />
            <mxPoint x="760" y="-80" as="targetPoint" />
          </mxGeometry>
        </mxCell>
        <mxCell id="wsVuDGbtytkXM1EMai7X-93" value="1" style="edgeLabel;html=1;align=center;verticalAlign=middle;resizable=0;points=[];" vertex="1" connectable="0" parent="wsVuDGbtytkXM1EMai7X-87">
          <mxGeometry x="-0.4485" y="1" relative="1" as="geometry">
            <mxPoint x="-16" y="-17" as="offset" />
          </mxGeometry>
        </mxCell>
        <mxCell id="wsVuDGbtytkXM1EMai7X-88" value="Applied to" style="shape=rhombus;perimeter=rhombusPerimeter;whiteSpace=wrap;html=1;align=center;" vertex="1" parent="1">
          <mxGeometry x="460" y="-132.5" width="80" height="60" as="geometry" />
        </mxCell>
        <mxCell id="wsVuDGbtytkXM1EMai7X-89" value="" style="endArrow=none;html=1;rounded=0;entryX=0;entryY=0.5;entryDx=0;entryDy=0;exitX=1;exitY=0.5;exitDx=0;exitDy=0;shape=link;strokeColor=#02742A;" edge="1" parent="1" source="wsVuDGbtytkXM1EMai7X-88" target="wsVuDGbtytkXM1EMai7X-8">
          <mxGeometry relative="1" as="geometry">
            <mxPoint x="440" y="-80" as="sourcePoint" />
            <mxPoint x="600" y="-80" as="targetPoint" />
          </mxGeometry>
        </mxCell>
        <mxCell id="wsVuDGbtytkXM1EMai7X-95" value="N" style="edgeLabel;html=1;align=center;verticalAlign=middle;resizable=0;points=[];" vertex="1" connectable="0" parent="wsVuDGbtytkXM1EMai7X-89">
          <mxGeometry x="-0.8503" y="1" relative="1" as="geometry">
            <mxPoint x="-11" y="-11" as="offset" />
          </mxGeometry>
        </mxCell>
        <mxCell id="wsVuDGbtytkXM1EMai7X-90" value="" style="endArrow=none;html=1;rounded=0;entryX=0;entryY=0.5;entryDx=0;entryDy=0;exitX=1;exitY=0.5;exitDx=0;exitDy=0;strokeColor=#02742A;" edge="1" parent="1" source="wsVuDGbtytkXM1EMai7X-9" target="wsVuDGbtytkXM1EMai7X-88">
          <mxGeometry relative="1" as="geometry">
            <mxPoint x="330" y="-80" as="sourcePoint" />
            <mxPoint x="490" y="-80" as="targetPoint" />
          </mxGeometry>
        </mxCell>
        <mxCell id="wsVuDGbtytkXM1EMai7X-94" value="1" style="edgeLabel;html=1;align=center;verticalAlign=middle;resizable=0;points=[];" vertex="1" connectable="0" parent="wsVuDGbtytkXM1EMai7X-90">
          <mxGeometry x="0.8512" y="-3" relative="1" as="geometry">
            <mxPoint x="15" y="6" as="offset" />
          </mxGeometry>
        </mxCell>
        <mxCell id="wsVuDGbtytkXM1EMai7X-110" value="" style="endArrow=none;html=1;rounded=0;exitX=0.5;exitY=0;exitDx=0;exitDy=0;entryX=0.5;entryY=1;entryDx=0;entryDy=0;" edge="1" parent="1" source="wsVuDGbtytkXM1EMai7X-8" target="wsVuDGbtytkXM1EMai7X-21">
          <mxGeometry relative="1" as="geometry">
            <mxPoint x="620" y="-20" as="sourcePoint" />
            <mxPoint x="780" y="-20" as="targetPoint" />
          </mxGeometry>
        </mxCell>
        <mxCell id="wsVuDGbtytkXM1EMai7X-111" value="" style="endArrow=none;html=1;rounded=0;entryX=0.75;entryY=0;entryDx=0;entryDy=0;exitX=0;exitY=1;exitDx=0;exitDy=0;" edge="1" parent="1" source="wsVuDGbtytkXM1EMai7X-22" target="wsVuDGbtytkXM1EMai7X-8">
          <mxGeometry relative="1" as="geometry">
            <mxPoint x="620" y="-20" as="sourcePoint" />
            <mxPoint x="780" y="-20" as="targetPoint" />
          </mxGeometry>
        </mxCell>
        <mxCell id="wsVuDGbtytkXM1EMai7X-112" value="" style="endArrow=none;html=1;rounded=0;entryX=1;entryY=0.25;entryDx=0;entryDy=0;exitX=0;exitY=0.5;exitDx=0;exitDy=0;" edge="1" parent="1" source="wsVuDGbtytkXM1EMai7X-24" target="wsVuDGbtytkXM1EMai7X-8">
          <mxGeometry relative="1" as="geometry">
            <mxPoint x="620" y="-20" as="sourcePoint" />
            <mxPoint x="780" y="-20" as="targetPoint" />
          </mxGeometry>
        </mxCell>
        <mxCell id="wsVuDGbtytkXM1EMai7X-113" value="" style="endArrow=none;html=1;rounded=0;exitX=1;exitY=1;exitDx=0;exitDy=0;entryX=0.243;entryY=0.083;entryDx=0;entryDy=0;entryPerimeter=0;" edge="1" parent="1" source="wsVuDGbtytkXM1EMai7X-8" target="wsVuDGbtytkXM1EMai7X-25">
          <mxGeometry relative="1" as="geometry">
            <mxPoint x="620" y="-20" as="sourcePoint" />
            <mxPoint x="780" y="-20" as="targetPoint" />
          </mxGeometry>
        </mxCell>
        <mxCell id="wsVuDGbtytkXM1EMai7X-114" value="" style="endArrow=none;html=1;rounded=0;exitX=0.5;exitY=1;exitDx=0;exitDy=0;entryX=0.5;entryY=0;entryDx=0;entryDy=0;" edge="1" parent="1" source="wsVuDGbtytkXM1EMai7X-8" target="wsVuDGbtytkXM1EMai7X-26">
          <mxGeometry relative="1" as="geometry">
            <mxPoint x="620" y="-20" as="sourcePoint" />
            <mxPoint x="780" y="-20" as="targetPoint" />
          </mxGeometry>
        </mxCell>
        <mxCell id="wsVuDGbtytkXM1EMai7X-115" value="" style="endArrow=none;html=1;rounded=0;exitX=0.75;exitY=0;exitDx=0;exitDy=0;entryX=0;entryY=0.5;entryDx=0;entryDy=0;" edge="1" parent="1" source="wsVuDGbtytkXM1EMai7X-36" target="wsVuDGbtytkXM1EMai7X-29">
          <mxGeometry relative="1" as="geometry">
            <mxPoint x="520" y="-90" as="sourcePoint" />
            <mxPoint x="680" y="-90" as="targetPoint" />
          </mxGeometry>
        </mxCell>
        <mxCell id="wsVuDGbtytkXM1EMai7X-116" value="" style="endArrow=none;html=1;rounded=0;exitX=0.5;exitY=0;exitDx=0;exitDy=0;entryX=0.5;entryY=1;entryDx=0;entryDy=0;" edge="1" parent="1" source="wsVuDGbtytkXM1EMai7X-36" target="wsVuDGbtytkXM1EMai7X-34">
          <mxGeometry relative="1" as="geometry">
            <mxPoint x="520" y="-90" as="sourcePoint" />
            <mxPoint x="680" y="-90" as="targetPoint" />
          </mxGeometry>
        </mxCell>
        <mxCell id="wsVuDGbtytkXM1EMai7X-117" value="" style="endArrow=none;html=1;rounded=0;exitX=0.25;exitY=0;exitDx=0;exitDy=0;entryX=1;entryY=0.5;entryDx=0;entryDy=0;" edge="1" parent="1" source="wsVuDGbtytkXM1EMai7X-36" target="wsVuDGbtytkXM1EMai7X-30">
          <mxGeometry relative="1" as="geometry">
            <mxPoint x="520" y="-90" as="sourcePoint" />
            <mxPoint x="680" y="-90" as="targetPoint" />
          </mxGeometry>
        </mxCell>
        <mxCell id="wsVuDGbtytkXM1EMai7X-118" value="" style="endArrow=none;html=1;rounded=0;exitX=1;exitY=0;exitDx=0;exitDy=0;entryX=0;entryY=1;entryDx=0;entryDy=0;" edge="1" parent="1" source="wsVuDGbtytkXM1EMai7X-9" target="wsVuDGbtytkXM1EMai7X-18">
          <mxGeometry relative="1" as="geometry">
            <mxPoint x="190" y="-50" as="sourcePoint" />
            <mxPoint x="350" y="-50" as="targetPoint" />
          </mxGeometry>
        </mxCell>
        <mxCell id="wsVuDGbtytkXM1EMai7X-119" value="" style="endArrow=none;html=1;rounded=0;exitX=1;exitY=0.75;exitDx=0;exitDy=0;entryX=0;entryY=0.5;entryDx=0;entryDy=0;" edge="1" parent="1" source="wsVuDGbtytkXM1EMai7X-9" target="wsVuDGbtytkXM1EMai7X-19">
          <mxGeometry relative="1" as="geometry">
            <mxPoint x="190" y="-50" as="sourcePoint" />
            <mxPoint x="350" y="-50" as="targetPoint" />
          </mxGeometry>
        </mxCell>
        <mxCell id="wsVuDGbtytkXM1EMai7X-120" value="" style="endArrow=none;html=1;rounded=0;exitX=0.75;exitY=1;exitDx=0;exitDy=0;entryX=0.5;entryY=0;entryDx=0;entryDy=0;" edge="1" parent="1" source="wsVuDGbtytkXM1EMai7X-9" target="wsVuDGbtytkXM1EMai7X-20">
          <mxGeometry relative="1" as="geometry">
            <mxPoint x="190" y="-50" as="sourcePoint" />
            <mxPoint x="350" y="-50" as="targetPoint" />
          </mxGeometry>
        </mxCell>
        <mxCell id="wsVuDGbtytkXM1EMai7X-121" value="" style="endArrow=none;html=1;rounded=0;exitX=0;exitY=1;exitDx=0;exitDy=0;entryX=1;entryY=0;entryDx=0;entryDy=0;" edge="1" parent="1" source="wsVuDGbtytkXM1EMai7X-9" target="wsVuDGbtytkXM1EMai7X-15">
          <mxGeometry relative="1" as="geometry">
            <mxPoint x="190" y="-50" as="sourcePoint" />
            <mxPoint x="350" y="-50" as="targetPoint" />
          </mxGeometry>
        </mxCell>
        <mxCell id="wsVuDGbtytkXM1EMai7X-122" value="" style="endArrow=none;html=1;rounded=0;exitX=0;exitY=0.5;exitDx=0;exitDy=0;entryX=1;entryY=0.5;entryDx=0;entryDy=0;" edge="1" parent="1" source="wsVuDGbtytkXM1EMai7X-9" target="wsVuDGbtytkXM1EMai7X-13">
          <mxGeometry relative="1" as="geometry">
            <mxPoint x="190" y="-50" as="sourcePoint" />
            <mxPoint x="350" y="-50" as="targetPoint" />
          </mxGeometry>
        </mxCell>
        <mxCell id="wsVuDGbtytkXM1EMai7X-123" value="" style="endArrow=none;html=1;rounded=0;exitX=0;exitY=0;exitDx=0;exitDy=0;entryX=1;entryY=1;entryDx=0;entryDy=0;" edge="1" parent="1" source="wsVuDGbtytkXM1EMai7X-9" target="wsVuDGbtytkXM1EMai7X-16">
          <mxGeometry relative="1" as="geometry">
            <mxPoint x="190" y="-50" as="sourcePoint" />
            <mxPoint x="350" y="-50" as="targetPoint" />
          </mxGeometry>
        </mxCell>
        <mxCell id="wsVuDGbtytkXM1EMai7X-124" value="" style="endArrow=none;html=1;rounded=0;exitX=0.25;exitY=0;exitDx=0;exitDy=0;entryX=0.5;entryY=1;entryDx=0;entryDy=0;" edge="1" parent="1" source="wsVuDGbtytkXM1EMai7X-9" target="wsVuDGbtytkXM1EMai7X-17">
          <mxGeometry relative="1" as="geometry">
            <mxPoint x="190" y="-50" as="sourcePoint" />
            <mxPoint x="350" y="-50" as="targetPoint" />
          </mxGeometry>
        </mxCell>
        <mxCell id="wsVuDGbtytkXM1EMai7X-125" value="" style="endArrow=none;html=1;rounded=0;exitX=0;exitY=0;exitDx=0;exitDy=0;entryX=1;entryY=0.5;entryDx=0;entryDy=0;" edge="1" parent="1" source="wsVuDGbtytkXM1EMai7X-10" target="wsVuDGbtytkXM1EMai7X-54">
          <mxGeometry relative="1" as="geometry">
            <mxPoint x="190" y="220" as="sourcePoint" />
            <mxPoint x="350" y="220" as="targetPoint" />
          </mxGeometry>
        </mxCell>
        <mxCell id="wsVuDGbtytkXM1EMai7X-126" value="" style="endArrow=none;html=1;rounded=0;exitX=0;exitY=0.5;exitDx=0;exitDy=0;entryX=1;entryY=0;entryDx=0;entryDy=0;" edge="1" parent="1" source="wsVuDGbtytkXM1EMai7X-10" target="wsVuDGbtytkXM1EMai7X-55">
          <mxGeometry relative="1" as="geometry">
            <mxPoint x="90" y="270" as="sourcePoint" />
            <mxPoint x="250" y="270" as="targetPoint" />
          </mxGeometry>
        </mxCell>
        <mxCell id="wsVuDGbtytkXM1EMai7X-127" value="" style="endArrow=none;html=1;rounded=0;exitX=0.25;exitY=1;exitDx=0;exitDy=0;entryX=0.5;entryY=0;entryDx=0;entryDy=0;" edge="1" parent="1" source="wsVuDGbtytkXM1EMai7X-10" target="wsVuDGbtytkXM1EMai7X-56">
          <mxGeometry relative="1" as="geometry">
            <mxPoint x="90" y="270" as="sourcePoint" />
            <mxPoint x="250" y="270" as="targetPoint" />
          </mxGeometry>
        </mxCell>
        <mxCell id="wsVuDGbtytkXM1EMai7X-128" value="" style="endArrow=none;html=1;rounded=0;exitX=1;exitY=0.5;exitDx=0;exitDy=0;entryX=0;entryY=0.5;entryDx=0;entryDy=0;" edge="1" parent="1" source="wsVuDGbtytkXM1EMai7X-39" target="wsVuDGbtytkXM1EMai7X-3">
          <mxGeometry relative="1" as="geometry">
            <mxPoint x="390" y="270" as="sourcePoint" />
            <mxPoint x="550" y="270" as="targetPoint" />
          </mxGeometry>
        </mxCell>
        <mxCell id="wsVuDGbtytkXM1EMai7X-129" value="" style="endArrow=none;html=1;rounded=0;exitX=1;exitY=1;exitDx=0;exitDy=0;entryX=0.132;entryY=0.014;entryDx=0;entryDy=0;entryPerimeter=0;" edge="1" parent="1" source="wsVuDGbtytkXM1EMai7X-37" target="wsVuDGbtytkXM1EMai7X-3">
          <mxGeometry relative="1" as="geometry">
            <mxPoint x="390" y="270" as="sourcePoint" />
            <mxPoint x="550" y="270" as="targetPoint" />
          </mxGeometry>
        </mxCell>
        <mxCell id="wsVuDGbtytkXM1EMai7X-130" value="" style="endArrow=none;html=1;rounded=0;exitX=0.5;exitY=0;exitDx=0;exitDy=0;entryX=0.5;entryY=1;entryDx=0;entryDy=0;" edge="1" parent="1" source="wsVuDGbtytkXM1EMai7X-3" target="wsVuDGbtytkXM1EMai7X-42">
          <mxGeometry relative="1" as="geometry">
            <mxPoint x="390" y="200" as="sourcePoint" />
            <mxPoint x="550" y="200" as="targetPoint" />
          </mxGeometry>
        </mxCell>
        <mxCell id="wsVuDGbtytkXM1EMai7X-131" value="" style="endArrow=none;html=1;rounded=0;exitX=0.877;exitY=0.017;exitDx=0;exitDy=0;exitPerimeter=0;entryX=0;entryY=1;entryDx=0;entryDy=0;" edge="1" parent="1" source="wsVuDGbtytkXM1EMai7X-3" target="wsVuDGbtytkXM1EMai7X-38">
          <mxGeometry relative="1" as="geometry">
            <mxPoint x="390" y="200" as="sourcePoint" />
            <mxPoint x="550" y="200" as="targetPoint" />
          </mxGeometry>
        </mxCell>
        <mxCell id="wsVuDGbtytkXM1EMai7X-132" value="" style="endArrow=none;html=1;rounded=0;entryX=0;entryY=0.5;entryDx=0;entryDy=0;" edge="1" parent="1" target="wsVuDGbtytkXM1EMai7X-44">
          <mxGeometry relative="1" as="geometry">
            <mxPoint x="530" y="280" as="sourcePoint" />
            <mxPoint x="560" y="280" as="targetPoint" />
          </mxGeometry>
        </mxCell>
        <mxCell id="wsVuDGbtytkXM1EMai7X-133" value="" style="endArrow=none;html=1;rounded=0;entryX=0;entryY=0;entryDx=0;entryDy=0;" edge="1" parent="1" target="wsVuDGbtytkXM1EMai7X-41">
          <mxGeometry relative="1" as="geometry">
            <mxPoint x="510" y="300" as="sourcePoint" />
            <mxPoint x="650" y="300" as="targetPoint" />
          </mxGeometry>
        </mxCell>
        <mxCell id="wsVuDGbtytkXM1EMai7X-134" value="" style="endArrow=none;html=1;rounded=0;entryX=0.25;entryY=1;entryDx=0;entryDy=0;exitX=0.5;exitY=0;exitDx=0;exitDy=0;" edge="1" parent="1" source="wsVuDGbtytkXM1EMai7X-43" target="wsVuDGbtytkXM1EMai7X-3">
          <mxGeometry relative="1" as="geometry">
            <mxPoint x="450" y="320" as="sourcePoint" />
            <mxPoint x="580" y="300" as="targetPoint" />
          </mxGeometry>
        </mxCell>
        <mxCell id="wsVuDGbtytkXM1EMai7X-135" value="" style="endArrow=none;html=1;rounded=0;entryX=0.79;entryY=0.1;entryDx=0;entryDy=0;entryPerimeter=0;" edge="1" parent="1" target="wsVuDGbtytkXM1EMai7X-40">
          <mxGeometry relative="1" as="geometry">
            <mxPoint x="440" y="300" as="sourcePoint" />
            <mxPoint x="580" y="300" as="targetPoint" />
          </mxGeometry>
        </mxCell>
        <mxCell id="wsVuDGbtytkXM1EMai7X-136" value="" style="endArrow=none;html=1;rounded=0;exitX=1;exitY=0;exitDx=0;exitDy=0;entryX=0;entryY=0.5;entryDx=0;entryDy=0;" edge="1" parent="1" source="wsVuDGbtytkXM1EMai7X-5" target="wsVuDGbtytkXM1EMai7X-45">
          <mxGeometry relative="1" as="geometry">
            <mxPoint x="790" y="100" as="sourcePoint" />
            <mxPoint x="950" y="100" as="targetPoint" />
          </mxGeometry>
        </mxCell>
        <mxCell id="wsVuDGbtytkXM1EMai7X-137" value="" style="endArrow=none;html=1;rounded=0;exitX=1;exitY=1;exitDx=0;exitDy=0;entryX=0;entryY=0.5;entryDx=0;entryDy=0;" edge="1" parent="1" source="wsVuDGbtytkXM1EMai7X-5" target="wsVuDGbtytkXM1EMai7X-46">
          <mxGeometry relative="1" as="geometry">
            <mxPoint x="800" y="130" as="sourcePoint" />
            <mxPoint x="960" y="130" as="targetPoint" />
          </mxGeometry>
        </mxCell>
        <mxCell id="wsVuDGbtytkXM1EMai7X-138" value="" style="endArrow=none;html=1;rounded=0;exitX=1;exitY=0;exitDx=0;exitDy=0;entryX=0;entryY=0.5;entryDx=0;entryDy=0;" edge="1" parent="1" source="wsVuDGbtytkXM1EMai7X-4" target="wsVuDGbtytkXM1EMai7X-47">
          <mxGeometry relative="1" as="geometry">
            <mxPoint x="800" y="320" as="sourcePoint" />
            <mxPoint x="960" y="320" as="targetPoint" />
          </mxGeometry>
        </mxCell>
        <mxCell id="wsVuDGbtytkXM1EMai7X-139" value="" style="endArrow=none;html=1;rounded=0;exitX=1;exitY=1;exitDx=0;exitDy=0;entryX=0;entryY=0.5;entryDx=0;entryDy=0;" edge="1" parent="1" source="wsVuDGbtytkXM1EMai7X-4" target="wsVuDGbtytkXM1EMai7X-48">
          <mxGeometry relative="1" as="geometry">
            <mxPoint x="800" y="320" as="sourcePoint" />
            <mxPoint x="960" y="320" as="targetPoint" />
          </mxGeometry>
        </mxCell>
        <mxCell id="wsVuDGbtytkXM1EMai7X-140" value="" style="endArrow=none;html=1;rounded=0;exitX=0;exitY=0;exitDx=0;exitDy=0;entryX=0.5;entryY=1;entryDx=0;entryDy=0;" edge="1" parent="1" source="wsVuDGbtytkXM1EMai7X-11" target="wsVuDGbtytkXM1EMai7X-52">
          <mxGeometry relative="1" as="geometry">
            <mxPoint x="470" y="580" as="sourcePoint" />
            <mxPoint x="630" y="580" as="targetPoint" />
          </mxGeometry>
        </mxCell>
        <mxCell id="wsVuDGbtytkXM1EMai7X-141" value="" style="endArrow=none;html=1;rounded=0;exitX=0;exitY=0.5;exitDx=0;exitDy=0;entryX=1;entryY=0.5;entryDx=0;entryDy=0;" edge="1" parent="1" source="wsVuDGbtytkXM1EMai7X-11" target="wsVuDGbtytkXM1EMai7X-51">
          <mxGeometry relative="1" as="geometry">
            <mxPoint x="470" y="580" as="sourcePoint" />
            <mxPoint x="630" y="580" as="targetPoint" />
          </mxGeometry>
        </mxCell>
        <mxCell id="wsVuDGbtytkXM1EMai7X-144" value="" style="endArrow=none;html=1;rounded=0;exitX=0;exitY=1;exitDx=0;exitDy=0;entryX=1;entryY=0;entryDx=0;entryDy=0;" edge="1" parent="1" source="wsVuDGbtytkXM1EMai7X-11" target="wsVuDGbtytkXM1EMai7X-50">
          <mxGeometry relative="1" as="geometry">
            <mxPoint x="470" y="580" as="sourcePoint" />
            <mxPoint x="630" y="580" as="targetPoint" />
          </mxGeometry>
        </mxCell>
        <mxCell id="wsVuDGbtytkXM1EMai7X-145" value="" style="endArrow=none;html=1;rounded=0;exitX=0.5;exitY=1;exitDx=0;exitDy=0;entryX=0.5;entryY=0;entryDx=0;entryDy=0;" edge="1" parent="1" source="wsVuDGbtytkXM1EMai7X-11" target="wsVuDGbtytkXM1EMai7X-49">
          <mxGeometry relative="1" as="geometry">
            <mxPoint x="470" y="580" as="sourcePoint" />
            <mxPoint x="630" y="580" as="targetPoint" />
          </mxGeometry>
        </mxCell>
        <mxCell id="wsVuDGbtytkXM1EMai7X-146" value="" style="endArrow=none;html=1;rounded=0;exitX=1;exitY=1;exitDx=0;exitDy=0;entryX=0.041;entryY=0.336;entryDx=0;entryDy=0;entryPerimeter=0;" edge="1" parent="1" source="wsVuDGbtytkXM1EMai7X-11" target="wsVuDGbtytkXM1EMai7X-53">
          <mxGeometry relative="1" as="geometry">
            <mxPoint x="470" y="580" as="sourcePoint" />
            <mxPoint x="630" y="580" as="targetPoint" />
          </mxGeometry>
        </mxCell>
      </root>
    </mxGraphModel>
  </diagram>
</mxfile>
